<?xml version="1.0" encoding="UTF-8" standalone="no"?>
<!-- Created with Inkscape (http://www.inkscape.org/) -->

<svg
   xmlns:dc="http://purl.org/dc/elements/1.1/"
   xmlns:cc="http://creativecommons.org/ns#"
   xmlns:rdf="http://www.w3.org/1999/02/22-rdf-syntax-ns#"
   xmlns:svg="http://www.w3.org/2000/svg"
   xmlns="http://www.w3.org/2000/svg"
   xmlns:sodipodi="http://sodipodi.sourceforge.net/DTD/sodipodi-0.dtd"
   xmlns:inkscape="http://www.inkscape.org/namespaces/inkscape"
   width="298.6012mm"
   height="130.0238mm"
   viewBox="0 0 298.6012 130.0238"
   version="1.1"
   id="svg8"
   inkscape:version="0.92.4 (5da689c313, 2019-01-14)"
   sodipodi:docname="logo.svg">
  <defs
     id="defs2" />
  <sodipodi:namedview
     id="base"
     pagecolor="#ffffff"
     bordercolor="#666666"
     borderopacity="1.0"
     inkscape:pageopacity="0.0"
     inkscape:pageshadow="2"
     inkscape:zoom="0.35"
     inkscape:cx="265.60166"
     inkscape:cy="102.13002"
     inkscape:document-units="mm"
     inkscape:current-layer="layer1"
     showgrid="false"
     inkscape:window-width="1920"
     inkscape:window-height="1012"
     inkscape:window-x="0"
     inkscape:window-y="32"
     inkscape:window-maximized="1"
     fit-margin-top="0"
     fit-margin-left="0"
     fit-margin-right="0"
     fit-margin-bottom="0" />
  <metadata
     id="metadata5">
    <rdf:RDF>
      <cc:Work
         rdf:about="">
        <dc:format>image/svg+xml</dc:format>
        <dc:type
           rdf:resource="http://purl.org/dc/dcmitype/StillImage" />
        <dc:title></dc:title>
      </cc:Work>
    </rdf:RDF>
  </metadata>
  <g
     inkscape:label="Layer 1"
     inkscape:groupmode="layer"
     id="layer1"
     transform="translate(49.514881,-47.535713)">
    <rect
       style="opacity:1;fill:#000044;fill-opacity:1;stroke-width:0.26458332"
       id="rect841"
       width="298.6012"
       height="130.0238"
       x="-49.514881"
       y="47.535713" />
    <g
       id="g842"
       transform="translate(6.593942,5.005127e-5)">
      <g
         inkscape:export-ydpi="219.1496"
         inkscape:export-xdpi="219.1496"
         style="fill:#ff0000"
         id="g857">
        <path
           style="opacity:1;fill:#ff0000;fill-opacity:1;stroke-width:0.26458332"
           d="m 39.584067,142.21862 a 29.671131,29.671131 0 0 0 22.4038,-10.24537 21.828124,21.828124 0 0 1 -9.949778,2.40244 21.828124,21.828124 0 0 1 -21.828124,-21.82813 21.828124,21.828124 0 0 1 21.828124,-21.82812 21.828124,21.828124 0 0 1 9.939444,2.41794 29.671131,29.671131 0 0 0 -22.393466,-10.26087 29.671131,29.671131 0 0 0 -29.671054,29.67105 29.671131,29.671131 0 0 0 29.671054,29.67106 z"
           id="path815"
           inkscape:connector-curvature="0" />
        <path
           style="opacity:1;fill:#ff0000;fill-opacity:1;stroke-width:0.30721062"
           d="M 41.791168,132.22957 A 19.749256,19.749256 0 0 0 60.070157,112.53878 19.749256,19.749256 0 0 0 41.83406,92.86556 24.190477,24.190477 0 0 1 51.981762,112.53878 24.190477,24.190477 0 0 1 41.791168,132.22957 Z"
           id="path823"
           inkscape:connector-curvature="0" />
        <path
           inkscape:connector-curvature="0"
           style="opacity:1;fill:#ff0000;fill-opacity:1;stroke-width:0.15963894"
           d="m 37.562787,124.28045 a 14.087747,11.994711 0 0 0 11.043913,-9.9279 l -8.882325,-1.80498 8.87308,-1.80324 a 14.087747,11.994711 0 0 0 -11.024101,-9.92965 18.595824,18.595824 0 0 0 -4.188465,11.73729 18.595824,18.595824 0 0 0 4.177898,11.72848 z"
           id="path830" />
      </g>
      <flowRoot
         transform="matrix(0.42838883,0,0,0.59598881,-60.107197,-143.52601)"
         style="font-style:normal;font-weight:normal;font-size:40px;line-height:1.25;font-family:sans-serif;letter-spacing:0px;word-spacing:0px;fill:#ffffff;fill-opacity:1;stroke:none"
         id="flowRoot828"
         xml:space="preserve"><flowRegion
           style="fill:#ffffff"
           id="flowRegion830"><rect
             style="fill:#ffffff"
             y="381.09113"
             x="300"
             height="104.28572"
             width="262.85718"
             id="rect832" /></flowRegion><flowPara
           style="font-style:normal;font-variant:normal;font-weight:bold;font-stretch:normal;font-size:85.33333588px;font-family:'Roboto Slab';-inkscape-font-specification:'Roboto Slab Bold';fill:#ffffff"
           id="flowPara834">DnFas</flowPara></flowRoot>    </g>
    <flowRoot
       xml:space="preserve"
       id="flowRoot846"
       style="font-style:normal;font-weight:normal;font-size:40px;line-height:1.25;font-family:sans-serif;letter-spacing:0px;word-spacing:0px;fill:#000000;fill-opacity:1;stroke:none"
       transform="scale(0.26458333)"><flowRegion
         id="flowRegion848"><rect
           id="rect850"
           width="509.11688"
           height="448.50772"
           x="-246.47722"
           y="197.21996" /></flowRegion><flowPara
         id="flowPara852" /></flowRoot>  </g>
</svg>
