<?xml version="1.0" encoding="iso-8859-1"?>
<!-- Generator: Adobe Illustrator 16.0.0, SVG Export Plug-In . SVG Version: 6.00 Build 0)  -->
<!DOCTYPE svg PUBLIC "-//W3C//DTD SVG 1.1//EN" "http://www.w3.org/Graphics/SVG/1.1/DTD/svg11.dtd">
<svg version="1.1" id="Capa_1" xmlns="http://www.w3.org/2000/svg" xmlns:xlink="http://www.w3.org/1999/xlink" x="0px" y="0px"
	 width="565.733px" height="565.733px" viewBox="0 0 565.733 565.733" style="enable-background:new 0 0 565.733 565.733;"
	 xml:space="preserve">
<g>
	<g>
		<path d="M552.634,485.024L377.287,309.648c-23.213-23.222-12.005-40.276-12.005-40.276l-0.104-0.117
			c7.755-15.974,5.153-35.665-8.084-48.924l-68.264-68.26c-16.751-16.754-43.911-16.754-60.678,0l-10.427,10.414l-1.11,1.119
			c0,0-4.789,9.521,17.037,10.795l0.009,0.022c0,0,10.036,0.858,19.847,10.661l24.158,24.159c8.831,8.826,9.074,18.025,8.666,22.163
			c-2.021,11.368-7.26,22.271-16.065,31.046c-8.709,8.74-19.552,13.936-30.829,15.961c-5.005,0.46-14.512-0.399-25.052-10.93
			l-18.316-18.347c-11.537-11.541-13.992-26.427-13.992-26.427h-0.026c-4.467-20.242-10.579-13.931-10.579-13.931l-11.545,11.542
			c-16.75,16.746-16.75,43.915-0.009,60.678l68.242,68.247c13.949,13.948,35.062,16.108,51.432,6.844l0.13,0.13
			c0,0,15.016-9.489,35.231,10.739l181.973,181.999c0,0,22.12,21.712,42.991,0.858l17.21-17.21
			C562.938,526.097,575.257,507.656,552.634,485.024L552.634,485.024z"/>
	</g>
	<path d="M362.506,461.143c-10.895-12.942-28.365-4.91-28.365-4.91l-0.052-0.121c-1.492,0.503-2.949,1.102-4.477,1.579
		c-0.485,0.173-0.78,0.364-1.336,0.59c-23.889,8.796-24.098,26.951-24.098,26.951v21.296c-0.347,18.112-14.803,21.296-22.28,21.772
		h-8.666c-18.581,0.373-21.912-10.981-22.389-17.062v-24.514c0-22.545-25.165-28.773-25.165-28.773l0.078-0.104
		c-13.628-4.033-26.514-9.767-38.619-16.638c-0.507-0.225-0.911-0.355-1.461-0.633c-20.363-10.21-35.544,4.189-35.544,4.189
		l-17.318,17.314c-12.088,12.049-21.036,6.437-24.31,3.452l-1.396-1.405l-0.052-0.069h-0.004l-14.226-14.226
		c-0.009-0.026-0.022-0.026-0.052-0.052c-11.129-11.112,3.349-26.405,5.274-28.331l16.889-16.863c0.008,0,0.008-0.044,0.008-0.044
		c13.016-13.02,2.789-33.274,2.789-33.274s0.139-0.026,0.169-0.026c-6.497-11.797-11.862-24.297-15.688-37.509
		c-0.122-0.351-0.265-0.576-0.399-0.94c-8.57-23.699-30.196-23.3-30.612-23.3l-16.403,0.073
		c-19.206,0.021-22.662-12.46-23.178-19.019l-0.043-13.224c0.117-5.469,2.095-20.923,21.521-21.088c0.008,0,0.008,0,0.008,0
		l21.027-0.086c0,0,19.816,0.924,26.852-20.194c0.104-0.265,0.23-0.408,0.325-0.672c4.22-15.553,10.301-30.317,18.204-43.897
		c0,0,0-0.013,0-0.03c10.041-20.194-4.298-35.335-6.167-37.175l-14.304-14.287c0,0,0-0.009-0.031-0.03
		c-13.792-13.797-4.341-25.75-1.062-29.159l7.452-7.46c0,0,15.722-16.646,32.373,0c0.021,0,0.021,0.009,0.039,0.031l16.256,16.251
		c3.066,2.91,15.571,13.081,33.518,4.363c0.074-0.026,0.096-0.026,0.156-0.048c11.546-6.545,23.972-11.676,36.893-15.618
		c0.347-0.143,0.529-0.312,0.919-0.473c20.827-8.18,24.705-21.018,25.286-27.654V55.828c0.113-4.06,1.666-20.038,20.333-20.038
		h11.667c0,0,21.3-0.711,21.3,22.996v18.316c0.104,5.222,1.926,22.623,21.998,29.71c0.035,0.009,0.035,0.021,0.087,0.043
		c12.162,3.344,23.751,8.05,34.75,13.736l0.121-0.091c0,0,25.035,15.541,43.945-3.353l12.665-12.652
		c0.572-0.585,17.695-17.162,30.499-4.359c0.018,0.013,0.052,0.026,0.052,0.057l10.479,10.448c0,0,12.717,15.476-3.297,31.493
		l-14.174,14.17c0,0-14.764,15.137-4.042,38.068c0.19,0.399,0.19,0.642,0.364,1.028c6.54,11.915,11.693,24.666,15.492,38.012
		c0.035-0.022,0.191-0.139,0.191-0.139s4.58,23,25.086,22.953l19.917-0.091h0.538h0.901c0.573-0.009,24.323-0.39,24.376,22.042
		l0.052,9.42v0.026v2.32c-0.19,5.552-2.846,19.426-24.913,19.509l-19.102,0.056c-14.92,0.14-22.345,12.375-25.624,20.16
		c-1.231,3.4-4.146,14.435,6.385,24.796l2.724,2.672c0.052,0.043,0.087,0.069,0.121,0.112c15.735,16.872,26.978-6.762,26.978-6.762
		c7.131-11.866,17.574-14.252,23.161-14.634h29.129c8.848,0,16.03-7.161,16.03-16.03v-73.95c0-8.839-7.183-16.026-16.03-16.026
		h-27.793c-21.79,0-27.29-20.225-27.29-20.225s-0.139,0.035-0.174,0.052c-3.244-9.325-6.939-18.464-11.346-27.186
		c0-0.026,0-0.047-0.035-0.074c-7.339-16.16,6.437-29.944,7.183-30.66l17.73-17.765c6.263-6.259,6.263-16.404,0-22.68
		l-52.272-52.285c-6.28-6.25-16.429-6.241-22.675,0.008l-12.891,12.864c-20.107,20.233-38.965,10.466-38.965,10.466l-0.018,0.052
		c-7.234-3.465-14.643-6.593-22.241-9.299c-0.348-0.169-0.607-0.321-0.972-0.473c-16.812-6.883-19.015-24.115-19.24-31.098V22.9
		c0-8.856-7.183-16.03-16.03-16.03h-76.964c-8.839,0-16.039,7.174-16.039,16.03v23.174c0,23.213-19.63,26.73-19.63,26.73
		l0.117,0.117c-8.492,3.027-16.815,6.41-24.822,10.392c-0.147,0.052-0.226,0.026-0.369,0.078
		c-16.009,7.087-24.856,0.144-27.103-2.034l-0.547-0.551l-0.078-0.095h-0.013l-21.678-21.729
		c-6.276-6.254-16.425-6.254-22.684-0.026L53.83,111.223c-6.254,6.268-6.271,16.404,0,22.667l17.375,17.393
		c0,0,15.067,14.525,7.594,30.833c0,0.026,0,0.026,0,0.026c-4.324,8.505-7.958,17.392-11.172,26.47
		c-0.221,0.468-0.438,0.837-0.66,1.388c-6.662,16.26-19.036,19.366-25.65,19.847H16.035C7.178,229.847,0,237.034,0,245.873v73.95
		c0,8.869,7.178,16.03,16.035,16.03h28.782c16.282,0,20.562,15.024,20.562,15.024s0.113-0.273,0.187-0.408
		c3.331,10.362,7.13,20.52,11.867,30.157c-0.008,0-0.1,0.043-0.1,0.043s10.171,17.245-1.223,28.635v0.035l-22.375,22.362
		c-6.254,6.254-6.254,16.43,0,22.658l52.29,52.289c6.271,6.264,16.408,6.264,22.662,0l20.129-20.09l0.043-0.069l0.902-0.876
		c2.758-2.629,12.448-9.776,31.146-2.064c0.195,0.095,0.316,0.13,0.49,0.19c7.13,3.374,14.469,6.445,21.981,9.082l-0.087,0.087
		c0,0,19.691,5.864,19.691,25.642v24.271c0,8.865,7.2,16.03,16.039,16.03h76.973c8.848,0,16.03-7.165,16.03-16.03v-26.579
		c0.347-5.863,2.949-16.932,16.741-22.362c0.538-0.226,0.885-0.408,1.302-0.59c5.326-1.856,10.443-4.129,15.597-6.332
		c12.438-6.905,0.902-20.992,0.902-20.992L362.506,461.143L362.506,461.143z"/>
</g>
<g>
</g>
<g>
</g>
<g>
</g>
<g>
</g>
<g>
</g>
<g>
</g>
<g>
</g>
<g>
</g>
<g>
</g>
<g>
</g>
<g>
</g>
<g>
</g>
<g>
</g>
<g>
</g>
<g>
</g>
</svg>
