<svg id="Capa_1" enable-background="new 0 0 451.111 451.111" height="512" viewBox="0 0 451.111 451.111" width="512" xmlns="http://www.w3.org/2000/svg"><path d="m271.125 115.542c25.167 25.167 25.167 65.971 0 91.138s-65.971 25.167-91.138 0-25.167-65.971 0-91.138 65.971-25.167 91.138 0"/><path d="m112.778 322.222v32.222h225.556v-32.222c0-22.326-15.482-41.725-41.411-51.905-41.725-16.394-101.025-16.394-142.719 0-25.945 10.18-41.426 29.58-41.426 51.905z"/><path d="m64.444 64.444h64.444v-64.444h-128.888v128.889h64.444z"/><path d="m322.222 0v64.444h64.444v64.444h64.444v-128.888z"/><path d="m386.667 386.667h-64.444v64.444h128.889v-128.889h-64.444v64.445z"/><path d="m64.444 322.222h-64.444v128.889h128.889v-64.444h-64.445z"/></svg>