<svg height="618pt" viewBox="-89 -19 618 618.66669" width="618pt" xmlns="http://www.w3.org/2000/svg"><path d="m305.667969 160c0 49.707031-40.292969 90-90 90s-90-40.292969-90-90 40.292969-90 90-90 90 40.292969 90 90zm0 0"/><path d="m-4.332031 570c0 5.523438 4.476562 10 10 10h420c5.519531 0 10-4.476562 10-10v-40c-.105469-93.84375-76.160157-169.898438-170-170h-100c-93.84375.101562-169.898438 76.15625-170 170zm0 0"/><path d="m25.667969 100c5.519531 0 10-4.476562 10-10v-70h70c5.519531 0 10-4.476562 10-10s-4.480469-10-10-10h-80c-5.523438 0-10 4.476562-10 10v80c0 5.523438 4.476562 10 10 10zm0 0"/><path d="m315.667969 20h70v70c0 5.523438 4.476562 10 10 10 5.519531 0 10-4.476562 10-10v-80c0-5.523438-4.480469-10-10-10h-80c-5.523438 0-10 4.476562-10 10s4.476562 10 10 10zm0 0"/><path d="m25.667969 320h80c5.519531 0 10-4.476562 10-10s-4.480469-10-10-10h-70v-70c0-5.523438-4.480469-10-10-10-5.523438 0-10 4.476562-10 10v80c0 5.523438 4.476562 10 10 10zm0 0"/><path d="m395.667969 220c-5.523438 0-10 4.476562-10 10v70h-70c-5.523438 0-10 4.476562-10 10s4.476562 10 10 10h80c5.519531 0 10-4.476562 10-10v-80c0-5.523438-4.480469-10-10-10zm0 0"/></svg>