<?xml version="1.0" encoding="iso-8859-1"?>
<!-- Generator: Adobe Illustrator 16.0.0, SVG Export Plug-In . SVG Version: 6.00 Build 0)  -->
<!DOCTYPE svg PUBLIC "-//W3C//DTD SVG 1.1//EN" "http://www.w3.org/Graphics/SVG/1.1/DTD/svg11.dtd">
<svg version="1.1" id="Capa_1" xmlns="http://www.w3.org/2000/svg" xmlns:xlink="http://www.w3.org/1999/xlink" x="0px" y="0px"
	 width="379.999px" height="380px" viewBox="0 0 379.999 380" style="enable-background:new 0 0 379.999 380;" xml:space="preserve"
	>
<g>
	<g>
		<path d="M373.907,25.767h-33.779v31.988c0,4.802-3.893,8.694-8.695,8.694h-26.664c-4.803,0-8.694-3.893-8.694-8.694V25.767H83.927
			v31.988c0,4.802-3.893,8.694-8.696,8.694H48.567c-4.802,0-8.695-3.893-8.695-8.694V25.767H6.093C2.728,25.767,0,28.495,0,31.86
			v316.28c0,3.363,2.728,6.092,6.093,6.092h33.779v-31.988c0-4.8,3.893-8.692,8.695-8.692h26.664c4.803,0,8.696,3.895,8.696,8.692
			v31.988h212.146v-31.988c0-4.8,3.893-8.692,8.694-8.692h26.664c4.804,0,8.695,3.895,8.695,8.692v31.988h33.779
			c3.365,0,6.093-2.729,6.093-6.092V31.859C380,28.494,377.272,25.767,373.907,25.767z M83.927,260.634
			c0,4.803-3.893,8.695-8.696,8.695H48.567c-4.802,0-8.695-3.895-8.695-8.695v-39.83c0-4.803,3.893-8.696,8.695-8.696h26.664
			c4.803,0,8.696,3.895,8.696,8.696L83.927,260.634L83.927,260.634z M83.927,159.194c0,4.802-3.893,8.695-8.696,8.695H48.567
			c-4.802,0-8.695-3.894-8.695-8.695v-39.83c0-4.803,3.893-8.696,8.695-8.696h26.664c4.803,0,8.696,3.894,8.696,8.696
			L83.927,159.194L83.927,159.194z M340.128,260.634c0,4.803-3.893,8.695-8.695,8.695h-26.664c-4.803,0-8.694-3.895-8.694-8.695
			v-39.83c0-4.803,3.893-8.696,8.694-8.696h26.664c4.804,0,8.695,3.895,8.695,8.696V260.634z M340.128,159.194
			c0,4.802-3.893,8.695-8.695,8.695h-26.664c-4.803,0-8.694-3.894-8.694-8.695v-39.83c0-4.803,3.893-8.696,8.694-8.696h26.664
			c4.804,0,8.695,3.894,8.695,8.696V159.194z"/>
	</g>
</g>
<g>
</g>
<g>
</g>
<g>
</g>
<g>
</g>
<g>
</g>
<g>
</g>
<g>
</g>
<g>
</g>
<g>
</g>
<g>
</g>
<g>
</g>
<g>
</g>
<g>
</g>
<g>
</g>
<g>
</g>
</svg>
