<?xml version="1.0" encoding="UTF-8" standalone="no"?>
<!-- Generator: Adobe Illustrator 16.0.0, SVG Export Plug-In . SVG Version: 6.00 Build 0)  -->

<svg
   xmlns:dc="http://purl.org/dc/elements/1.1/"
   xmlns:cc="http://creativecommons.org/ns#"
   xmlns:rdf="http://www.w3.org/1999/02/22-rdf-syntax-ns#"
   xmlns:svg="http://www.w3.org/2000/svg"
   xmlns="http://www.w3.org/2000/svg"
   xmlns:sodipodi="http://sodipodi.sourceforge.net/DTD/sodipodi-0.dtd"
   xmlns:inkscape="http://www.inkscape.org/namespaces/inkscape"
   version="1.1"
   id="Capa_1"
   x="0px"
   y="0px"
   width="363.91101"
   height="635.72083"
   viewBox="0 0 363.911 635.72082"
   xml:space="preserve"
   sodipodi:docname="map-marker.svg"
   inkscape:version="0.92.4 (5da689c313, 2019-01-14)"><metadata
   id="metadata41"><rdf:RDF><cc:Work
       rdf:about=""><dc:format>image/svg+xml</dc:format><dc:type
         rdf:resource="http://purl.org/dc/dcmitype/StillImage" /><dc:title></dc:title></cc:Work></rdf:RDF></metadata><defs
   id="defs39"><filter
     inkscape:collect="always"
     style="color-interpolation-filters:sRGB"
     id="filter1205"
     x="-0.30878604"
     width="1.6175721"
     y="-0.58578531"
     height="2.1715706"><feGaussianBlur
       inkscape:collect="always"
       stdDeviation="24.129075"
       id="feGaussianBlur1207" /></filter></defs><sodipodi:namedview
   pagecolor="#ffffff"
   bordercolor="#666666"
   borderopacity="1"
   objecttolerance="10"
   gridtolerance="10"
   guidetolerance="10"
   inkscape:pageopacity="0"
   inkscape:pageshadow="2"
   inkscape:window-width="1920"
   inkscape:window-height="1012"
   id="namedview37"
   showgrid="false"
   inkscape:zoom="0.68785273"
   inkscape:cx="376.87204"
   inkscape:cy="369.4355"
   inkscape:window-x="0"
   inkscape:window-y="32"
   inkscape:window-maximized="1"
   inkscape:current-layer="Capa_1"
   fit-margin-top="0"
   fit-margin-left="0"
   fit-margin-right="0"
   fit-margin-bottom="0" />
<ellipse
   style="fill:#000000;fill-opacity:1;opacity:0.117;filter:url(#filter1205)"
   id="path1024"
   cx="181.95551"
   cy="549.00256"
   rx="93.770073"
   ry="49.429184"
   transform="matrix(1.2598518,0,0,1.2598518,-47.281474,-136.46216)" /><circle
   id="path103"
   cx="181.95551"
   cy="181.36789"
   r="139.56476"
   style="fill:#ffffff;stroke-width:1.06077349" /><g
   id="g4"
   style="fill:#ff2a2a"
   transform="translate(-60.651)">
	<path
   d="M 242.606,0 C 142.124,0 60.651,81.473 60.651,181.955 c 0,100.482 151.631,303.257 181.956,303.257 30.326,0 181.955,-202.775 181.955,-303.257 C 424.562,81.473 343.089,0 242.606,0 Z m 0,303.257 c -66.9,0 -121.302,-54.433 -121.302,-121.302 0,-66.869 54.402,-121.304 121.302,-121.304 66.902,0 121.302,54.435 121.302,121.304 0,66.869 -54.399,121.302 -121.302,121.302 z"
   id="path2"
   style="fill:#ff2a2a"
   inkscape:connector-curvature="0" />
</g>
<g
   id="g6"
   transform="translate(-60.651)">
</g>
<g
   id="g8"
   transform="translate(-60.651)">
</g>
<g
   id="g10"
   transform="translate(-60.651)">
</g>
<g
   id="g12"
   transform="translate(-60.651)">
</g>
<g
   id="g14"
   transform="translate(-60.651)">
</g>
<g
   id="g16"
   transform="translate(-60.651)">
</g>
<g
   id="g18"
   transform="translate(-60.651)">
</g>
<g
   id="g20"
   transform="translate(-60.651)">
</g>
<g
   id="g22"
   transform="translate(-60.651)">
</g>
<g
   id="g24"
   transform="translate(-60.651)">
</g>
<g
   id="g26"
   transform="translate(-60.651)">
</g>
<g
   id="g28"
   transform="translate(-60.651)">
</g>
<g
   id="g30"
   transform="translate(-60.651)">
</g>
<g
   id="g32"
   transform="translate(-60.651)">
</g>
<g
   id="g34"
   transform="translate(-60.651)">
</g>
<g
   id="g217"
   transform="matrix(0.33596197,0,0,0.33596197,89.874203,74.021706)"
   style="fill:#409eff;fill-opacity:1"><g
     id="g159"
     style="fill:#409eff;fill-opacity:1">
	<g
   id="g157"
   style="fill:#409eff;fill-opacity:1">
		<path
   id="path153"
   d="M 526.76,131.045 C 512.483,116.771 495.262,109.632 475.085,109.632 H 411.132 L 396.574,70.806 C 392.956,61.481 386.345,53.438 376.728,46.678 367.115,39.921 357.266,36.54 347.177,36.54 H 200.996 c -10.088,0 -19.939,3.381 -29.552,10.138 -9.613,6.76 -16.225,14.803 -19.842,24.128 l -14.56,38.826 H 73.089 c -20.179,0 -37.401,7.139 -51.678,21.413 C 7.137,145.32 0,162.544 0,182.721 v 255.813 c 0,20.178 7.137,37.404 21.411,51.675 14.277,14.277 31.5,21.416 51.678,21.416 h 401.989 c 20.177,0 37.397,-7.139 51.675,-21.416 14.273,-14.271 21.412,-31.497 21.412,-51.675 V 182.721 C 548.169,162.544 541.03,145.32 526.76,131.045 Z M 364.446,400.993 c -25.029,25.03 -55.147,37.548 -90.362,37.548 -35.215,0 -65.331,-12.518 -90.362,-37.548 -25.031,-25.026 -37.544,-55.151 -37.544,-90.358 0,-35.218 12.517,-65.333 37.544,-90.364 25.028,-25.031 55.148,-37.544 90.362,-37.544 35.214,0 65.333,12.516 90.362,37.544 25.03,25.028 37.545,55.146 37.545,90.364 0,35.207 -12.514,65.329 -37.545,90.358 z"
   inkscape:connector-curvature="0"
   style="fill:#409eff;fill-opacity:1" />
		<path
   id="path155"
   d="m 274.084,228.403 c -22.651,0 -42.018,8.042 -58.102,24.128 -16.084,16.084 -24.126,35.448 -24.126,58.104 0,22.647 8.042,42.014 24.126,58.098 16.084,16.081 35.45,24.123 58.102,24.123 22.648,0 42.017,-8.042 58.101,-24.123 16.084,-16.084 24.127,-35.45 24.127,-58.098 0,-22.655 -8.043,-42.019 -24.127,-58.104 -16.083,-16.085 -35.453,-24.128 -58.101,-24.128 z"
   inkscape:connector-curvature="0"
   style="fill:#409eff;fill-opacity:1" />
	</g>
</g><g
     id="g161"
     style="fill:#409eff;fill-opacity:1">
</g><g
     id="g163"
     style="fill:#409eff;fill-opacity:1">
</g><g
     id="g165"
     style="fill:#409eff;fill-opacity:1">
</g><g
     id="g167"
     style="fill:#409eff;fill-opacity:1">
</g><g
     id="g169"
     style="fill:#409eff;fill-opacity:1">
</g><g
     id="g171"
     style="fill:#409eff;fill-opacity:1">
</g><g
     id="g173"
     style="fill:#409eff;fill-opacity:1">
</g><g
     id="g175"
     style="fill:#409eff;fill-opacity:1">
</g><g
     id="g177"
     style="fill:#409eff;fill-opacity:1">
</g><g
     id="g179"
     style="fill:#409eff;fill-opacity:1">
</g><g
     id="g181"
     style="fill:#409eff;fill-opacity:1">
</g><g
     id="g183"
     style="fill:#409eff;fill-opacity:1">
</g><g
     id="g185"
     style="fill:#409eff;fill-opacity:1">
</g><g
     id="g187"
     style="fill:#409eff;fill-opacity:1">
</g><g
     id="g189"
     style="fill:#409eff;fill-opacity:1">
</g></g></svg>